<?xml version="1.0" encoding="utf-8"?>
<!-- Generator: Adobe Illustrator 26.0.1, SVG Export Plug-In . SVG Version: 6.00 Build 0)  -->
<svg version="1.1"
	 id="Layer_1" inkscape:version="1.1 (c68e22c387, 2021-05-23)" xmlns:inkscape="http://www.inkscape.org/namespaces/inkscape" xmlns:sodipodi="http://sodipodi.sourceforge.net/DTD/sodipodi-0.dtd" xmlns:svg="http://www.w3.org/2000/svg"
	 xmlns="http://www.w3.org/2000/svg" xmlns:xlink="http://www.w3.org/1999/xlink" x="0px" y="0px" viewBox="0 0 64 64"
	 style="enable-background:new 0 0 64 64;" xml:space="preserve">
<style type="text/css">
	.st0{fill-rule:evenodd;clip-rule:evenodd;fill:#FFFFFF;}
</style>
<sodipodi:namedview  bordercolor="#cccccc" borderopacity="1" id="namedview8763" inkscape:current-layer="Layer_1" inkscape:cx="3.4181818" inkscape:cy="32" inkscape:pagecheckerboard="0" inkscape:pageopacity="1" inkscape:pageshadow="0" inkscape:window-height="668" inkscape:window-maximized="1" inkscape:window-width="1280" inkscape:window-x="-6" inkscape:window-y="24" inkscape:zoom="6.875" pagecolor="#ffffff" showgrid="false">
	</sodipodi:namedview>
<path id="path8760" class="st0" d="M22,40c1.1,0,2,0.9,2,2s-0.9,2-2,2c-1.1,0-2-0.9-2-2S20.9,40,22,40L22,40z M16.1,34.3
	c-1.3-8.7,4.8-16.9,13.6-18.1S46.6,21,47.8,29.7S43,46.6,34.3,47.9c-0.1,0-0.2,0-0.3,0l0.3,0c-1.1,0.2-2.1-0.6-2.3-1.7
	c-0.2-1.1,0.6-2.1,1.7-2.3l0,0c0,0,0,0,0,0c6.6-0.9,11.1-7,10.2-13.6c-0.9-6.6-7-11.1-13.6-10.2c-6.6,0.9-11.1,7-10.2,13.6
	c0,0,0,0,0,0l0,0l0,0c0.2,1.1-0.6,2.1-1.7,2.3C17.3,36.1,16.3,35.4,16.1,34.3l0.1,0.3C16.2,34.5,16.2,34.4,16.1,34.3L16.1,34.3z
	 M48,13c0-1.7,1.3-3,3-3c1.6,0,3,1.3,3,3v0.1c0,1.6-1.4,3-3,3C49.3,16,48,14.7,48,13L48,13z M58.7,58.5C55.2,62,50.4,64,42,64H22
	c-8.3,0-13.2-2-16.6-5.5C1.9,55.1,0,50.2,0,42V22c0-8.2,1.9-13,5.3-16.5C8.8,2,13.6,0,22,0h20c8.3,0,13.2,2,16.6,5.5
	c0.2,0.2,0.4,0.5,0.6,0.7C59.7,6.6,60,7.1,60,7.7c0,1.1-0.9,2-2,2c-0.6,0-1.1-0.3-1.5-0.7l0,0c-0.2-0.2-0.4-0.5-0.6-0.7
	C52.8,5.2,48.3,4,41,4H23C15.7,4,11.2,5.2,8.2,8.3C5.2,11.3,4,15.8,4,23v18c0,7.2,1.2,11.7,4.2,14.7c3,3.1,7.5,4.3,14.8,4.3h18
	c7.3,0,11.8-1.2,14.8-4.3c3-3,4.2-7.5,4.2-14.7V23c0-1.7-0.1-3.3-0.2-4.8l0,0c-0.1-1.1,0.7-2.1,1.8-2.2c1.1-0.1,2.1,0.7,2.2,1.8
	c0,0,0,0.1,0,0.1h0c0.1,1.3,0.2,2.6,0.2,4.1v20C64,50.2,62.1,55.1,58.7,58.5L58.7,58.5z"/>
</svg>
