<?xml version="1.0" encoding="utf-8"?>
<!-- Generator: Adobe Illustrator 26.0.1, SVG Export Plug-In . SVG Version: 6.00 Build 0)  -->
<svg version="1.1" id="Layer_5" xmlns="http://www.w3.org/2000/svg" xmlns:xlink="http://www.w3.org/1999/xlink" x="0px" y="0px"
	 viewBox="0 0 512 512" style="enable-background:new 0 0 512 512;" xml:space="preserve">
<style type="text/css">
	.st0{fill-rule:evenodd;clip-rule:evenodd;fill:#FFFFFF;}
</style>
<path class="st0" d="M472,480h-80c-19.4,0-35.5-13.8-39.2-32c-0.3,0-0.5,0-0.8,0V303.2c0-17.2-14.3-31.2-32-31.2
	c-17.7,0-32,14-32,31.2v136.4v0.4c0,9.8-3.6,18.5-9.4,25.5c-3.2,4.8-8.6,8-14.8,8c-9.8,0-17.8-7.9-17.8-17.8c0-5.2,2.3-9.8,5.8-13.1
	c2.6-2.9,4.2-6.5,4.2-10.7v-22.9v-32.9v-74.5c0-34.1,28.6-61.7,64-61.7c35.3,0,64,27.6,64,61.7v107.4c0,1.1-0.1,2.1-0.2,3.2
	c0.1,0,0.1,0,0.2,0V432c0,8.8,7.2,16,16,16h64c8.8,0,16-7.2,16-16V288c0-1.2-0.1-2.4-0.4-3.5C475.5,215,420,160,352,160
	c-28.2,0-54.2,9.6-75.4,25.7c-0.1,0-0.2,0-0.3,0.1c-2.1,1.7-4.9,2.8-7.8,2.8c-6.9,0-12.5-5.6-12.5-12.5c0-0.9-0.1-1.3-0.1-1.4
	c-0.7-8.1-7.5-14.6-15.9-14.6h-48c-17.7,0-32,14.3-32,32v240c0,1.4,0.3,2.8,0.6,4.1c-0.4,1.1-0.6,2.4-0.6,3.9c0,22.1-17.9,40-40,40
	h-2.9H40c-22.1,0-40-17.9-40-40V168c0-22.1,17.9-40,40-40h40c26.5,0,48-21.5,48-48c0-26.5-21.5-48-48-48c-26.5,0-48,21.5-48,48
	c0,8.8-7.2,16-16,16C7.2,96,0,88.8,0,80C0,35.8,35.8,0,80,0c44.2,0,80,35.8,80,80c0,4.1-0.4,8-1,11.9c-0.1,0.8-0.2,1.5-0.3,2.3
	c-0.7,3.9-1.6,7.7-2.9,11.4c-0.1,0.2-0.1,0.3-0.2,0.5c-2.8,7.9-6.7,15.3-11.7,21.9c-14.6,19.4-37.7,32-63.9,32H48
	c-8.8,0-16,7.2-16,16v256c0,8.8,7.2,16,16,16h80.8c-0.5-2.6-0.8-5.2-0.8-8V192c0-35.3,28.7-64,64-64h56c9.9,0,18.9,3.6,25.8,9.6
	c0.1,0.1,0.2,0,0.3,0c2.8,2.4,6.4,3.8,10.4,3.8c2.2,0,4.3-0.4,6.1-1.2c0.6-0.2,0.9-0.2,1.2-0.2c18.6-7.6,38.8-12.1,60.1-12.1
	c82.9,0,151.1,63.1,159.2,143.9c0.5,2.6,0.8,5.3,0.8,8.1v160C512,462.1,494.1,480,472,480L472,480z M208,448c8.8,0,16,7.2,16,16
	c0,8.8-7.2,16-16,16c-8.8,0-16-7.2-16-16C192,455.2,199.2,448,208,448L208,448z"/>
</svg>
