<?xml version="1.0" encoding="utf-8"?>
<!-- Generator: Adobe Illustrator 26.0.1, SVG Export Plug-In . SVG Version: 6.00 Build 0)  -->
<svg version="1.1" id="Layer_5" xmlns="http://www.w3.org/2000/svg" xmlns:xlink="http://www.w3.org/1999/xlink" x="0px" y="0px"
	 viewBox="0 0 512 512" style="enable-background:new 0 0 512 512;" xml:space="preserve">
<style type="text/css">
	.st0{fill-rule:evenodd;clip-rule:evenodd;fill:#FFFFFF;}
</style>
<path class="st0" d="M512,107.9c0,7-2.2,13.5-6,18.8c-10.1,15.1-23.7,26-37.4,37.4c-2.8,2.7-4.6,6.4-4.8,10.5
	c-1.5,69.2-27.1,148.2-72.8,200.5C336.5,437.7,262.1,480,176,480c-8.8,0-16-7.2-16-16c0-8.8,7.2-16,16-16
	c158.6,0,244.9-138.6,255-256.9c0.5-1.7,0.8-3.8,0.8-6.8c0-1,0-2,0.1-3c0.8-13.8,7-26.2,16.4-35c0.5-0.4,0.8-0.9,1.2-1.3
	c11.6-11.4,22.2-24.7,30.5-37.2c-11.7,5.3-24.1,9.2-36.9,11.9c-2.1,0-4-1.8-4-4c0-1.1,0.4-2.1,1.2-2.8c0,0-0.1,0-0.1,0
	c12.6-11,22.3-25.4,27.5-41.8c-8.5,5.1-17.4,9.4-26.7,13.1c-6,2.4-12.5,3.8-19.4,3.8c-10.7,0-20.6-3.2-28.8-8.7
	c-0.3-0.2-0.6-0.4-1-0.6C378,69.6,362.1,64.1,344,64.1l-1.9,0.3c-39.7,0-69.9,22.4-81.2,56.7c-0.3,0.1-3.6,14.4-3.9,16.5
	c-3,19.1-19.5,33.7-39.5,33.7c-2.2,0-4.3-0.2-6.4-0.5c-52.5-9.8-99.8-32.5-135.2-69.4c-0.2-0.2-0.4-0.2-0.7-0.5
	c-4.7-4.7-12.3-4.7-17,0c-1.1,1.1-1.9,2.4-2.5,3.7c-0.1,0.3-0.2,0.3-0.3,0.4c-4.3,9.9-7.4,20.5-7.4,31.1c0,21.8,8.9,41.8,22.2,57.6
	c0,0-0.2-0.1-0.1,0c1.2,1.4,1.9,3.2,1.9,5.1c0,4.4-3.6,8-8,8c-0.9,0-1.7-0.2-2.5-0.5c-0.1-0.1-0.2-0.1-0.4-0.2
	c-0.1,0.1-0.3,0.1-0.6,0c-1.1-0.5-2.3-0.8-3.6-0.8c-4.3,0-7.9,3.5-8,7.8c4.2,28.5,21.6,53.7,45.2,68.5c-0.3,0-0.5,0-0.4,0
	c2.2,1.4,3.6,3.9,3.6,6.7c0,4.4-3.6,8-8,8c-0.1,0-0.2,0-0.3,0c-0.1,0-0.2-0.1-0.3-0.1c-0.3,0-0.6-0.1-0.8-0.1
	c-2.2,0.1-3.8,1.8-3.8,4c0,0.6,0.1,1.2,0.4,1.7c6.5,16.2,17.5,30.1,31.4,40.2c0.2,0.1,0.2,0.2,0.4,0.4c1.2,0.8,2.3,1.8,3.4,2.9
	c10.9,10.9,10.9,28.6,0,39.6c-3.4,3.3-7.3,5.7-11.6,7c0,0,0,0-0.1,0C91.8,397,74.4,400,56,400c-3.1,0-6.5,0-10,0c-2.2,0-4,1.8-4,4
	c0,1.3,0.6,2.4,1.6,3.1c6.6,3.9,13.3,7.7,20.3,11.3l0,0c4.7,2.6,8,7.6,8,13.4c0,8.5-6.9,15.4-15.4,15.4c-3.5,0-6.7-1.2-9.3-3.1
	C36,438.3,25.1,432,14.8,425.3c-12.6-8.1-17.9-24-12.9-38.2C6.5,374.1,18.6,368,32,368c6,0.7,17.9,0,24,0c12.3,0,22.4-2.5,34-5.3
	c-17.5-14.8-31-34.6-38.3-57.6c-1.8-5.7-2-11.7-0.6-17.4C30.4,265.2,16,232.4,16,200.1c0.2-8,5.3-14.7,10.5-20.4
	C21.4,165.9,16,151.2,16,136.1c0-22.1,8.6-44,19.6-63c5.3-9.2,18-16.2,28.4-17c9.6,0,18,5.3,24.1,12.8
	c30.2,37.4,77.4,57.4,123.9,68.9c0.8,0.1,1.6,0.2,2.5,0.2c7.6,0,13.9-5.3,15.6-12.4c12.7-53.8,54.5-93.6,112-93.6
	c24.3,0,48.1,7.3,68.1,20.6c3.1,2,6.8,3.2,10.7,3.2c1.8,0,3.4-0.3,5-0.7c8.7-3.2,17.1-7,25.1-11.8c5.1-3,10.7-3.3,16.4-3.3
	c7.1,0,14.2,1.1,20,5.8c10.4,8.4,14.6,22.4,10.6,35.2c0,0,0,0.1,0,0.1C506.5,87,512,96.8,512,107.9L512,107.9z M32,368
	C30.7,367.9,33.3,368,32,368L32,368z M64,56.1C63.2,56.1,64.8,56,64,56.1L64,56.1z M120,440c8.8,0,16,7.2,16,16c0,8.8-7.2,16-16,16
	c-8.8,0-16-7.2-16-16C104,447.2,111.2,440,120,440L120,440z"/>
</svg>
